<svg version="1.0" xmlns="http://www.w3.org/2000/svg" width="3585.333" height="1444" viewBox="0 0 2689 1083"><path d="M1750.5 2.3c-20.4 6.8-32.7 26.7-29.5 47.4 2.3 14.3 11 26.2 23.9 32.6 6.2 3 7.2 3.2 17.6 3.2 9.1 0 12-.4 16.8-2.4 8.2-3.2 17.7-12.4 21.9-20.9 3.2-6.4 3.3-7.1 3.3-18.7 0-11-.2-12.5-2.7-17.8-3.8-8-12.6-17-20.7-21-5.8-2.8-7.5-3.2-16.5-3.4-6.4-.2-11.6.2-14.1 1zM1420.7 4.7c-1.1 1.9-48.6 90.2-50.6 94l-2.1 4.3h60.6l33.4-48.7c18.4-26.8 33.7-49.1 33.8-49.5.5-1-74.5-1.1-75.1-.1zM834.5 34.2c-.2.9-25.9 321.1-30.8 384.3l-.2 3 37.2.3 37.1.2.6-5.7c2.5-23.2 14.6-193.5 17.2-239.8.8-16.5 1.7-30.1 1.8-30.3.2-.1 9.6 27.4 21 61.2 11.5 33.8 32.8 94.4 47.5 134.8l26.6 73.3 25.7.3 25.6.2 4.5-12.2c2.5-6.8 19-51.2 36.7-98.8 17.7-47.6 37.8-102 44.6-121 6.9-19 13.1-36.1 13.8-38l1.4-3.5.6 4.5c.3 2.5 2.4 28.8 4.6 58.5 3.7 49.2 17.3 205.5 18.6 213.2l.5 3.3h73.9v-3.8c-.1-2-8.5-89.4-18.8-194.2l-18.7-190.5-42.1-.3-42.2-.2-1.7 4.2c-6.4 16.1-67 174.8-72.2 189.3-6.8 18.7-26.3 76.4-26.3 77.6 0 .4-.5 2-1.1 3.6-1 2.6-1.4 1.5-5.9-13.2-12.7-41.6-30.7-91.1-92.6-254.8l-2.6-6.7h-41.9c-32.7 0-42.1.3-42.4 1.2zM1370.5 127.1c-47.1 6.3-86.3 36.9-103 80.4-7.8 20.4-10.5 35.1-11.2 60.7-.9 33.7 3.4 56.2 15.5 80.3 7 14 13.6 23.1 25.6 35.1 15.9 16 30.5 25.1 51.3 32 21.3 7.2 45.7 10 73.3 8.4 28.4-1.6 45-5.2 63.3-13.7l9.7-4.6v-31.4c0-17.2-.2-31.3-.4-31.3s-2.8 1.6-5.7 3.6c-10.9 7.3-24.5 13-39.9 16.5-11.1 2.6-39.2 3.7-51.1 2-28.9-4.2-51.4-19.3-63.1-42.6-2.9-5.7-6.8-15.8-6.8-17.7 0-.4 40.8-.9 90.8-1l90.7-.3 1.2-8.5c6.8-46.5.1-89.7-18.3-118.2-16.1-25-40.5-41.2-72.2-47.8-11.3-2.4-38.6-3.5-49.7-1.9zm36.9 57.5c22 5.4 35.8 25.7 38.1 56.2l.8 9.2h-119.5l.7-4.8c.4-2.6 2-8.8 3.6-13.7 11.9-37 41.8-55.3 76.3-46.9zM1943.6 127.1c-21.5 2.9-43.3 11.8-59.6 24-10.4 7.8-23.9 22.2-30.6 32.4-13.8 21.2-21.1 44.7-23.6 76.3-4 50.4 10.6 94 41.6 124.8 29.8 29.5 71.1 42.6 124.9 39.4 27.1-1.7 50.9-7.1 66.2-15.3l6-3.2.3-31.8.2-31.7-4.8 3.5c-6.5 4.6-19 10.8-28.2 13.9-15.3 5.1-23 6.1-45 6.1-24.5 0-32.3-1.5-49-9.6-9.1-4.5-11.6-6.3-19.6-14.3-8-8.1-9.8-10.5-14.2-19.6-2.8-5.8-5.4-12.2-5.8-14.3l-.6-3.7h90.6c49.8 0 90.6-.2 90.6-.5 0-.2.8-5.3 1.7-11.2 2.6-16.2 2.4-50.9-.5-66.3-5.4-29.6-16-50.9-33.6-67.8-16.4-15.7-33.5-24.4-57.6-29.3-11.1-2.3-38.8-3.3-49.4-1.8zm35.9 57.1c8.5 1.8 15.6 5.8 22 12.2 10.6 10.7 16.2 24.8 17.2 43.3l.6 10.3h-119.2l.6-3.3c8.8-46.4 39.8-71.1 78.8-62.5zM1662.2 128.9c-4 1-11.2 3.8-16 6.1-11.5 5.7-23.5 17.5-30.5 30l-4.7 8.5V129H1540.3l-.6 19.7c-.4 10.8-.7 76.7-.7 146.5V422h72v-80.9c0-89.3.1-90.4 6.3-107 7.8-20.6 22.6-35.3 41.1-40.6 4.6-1.4 8.5-1.6 18-1.3 11.1.5 17.5 1.8 25.9 5.3 1.6.7 1.7-1.3 1.7-33.8 0-26.6-.3-34.8-1.2-35.4-.7-.4-8.5-.9-17.3-1-12.8-.2-17.5.1-23.3 1.6zM1727.2 275.2l.3 146.3h71l.3-146.3.2-146.2h-72l.2 146.2zM2116 233.2c0 87.3.3 105.9 1.5 114.3 6.2 41.7 30.3 67.6 70.1 75.1 10.7 2 33.3 2.2 44.9.4 17.8-2.7 36.3-10.8 47.3-20.6 6.4-5.8 14.3-15.2 16.3-19.8.7-1.4 1.6-2.6 2.1-2.6.4 0 .8 9.4.8 21v21h71V129h-71v78.2c0 43.1-.5 83.7-1 90.3-2 24.5-7.6 39.3-19.4 51.1-7.2 7.2-12.7 10.6-22.6 14-7.8 2.7-30.2 2.7-37.8.1-16.8-5.9-27.3-19.9-30.1-40.1-.7-5.1-1.1-39.8-1.1-100.7V129h-71v104.2zM2387.6 130.2c.5.7 21.9 33.2 47.7 72.2 25.7 39 46.6 71.5 46.3 72.2-.3.7-22.8 33.6-50.2 73.1-27.3 39.5-49.9 72.4-50.1 73.1-.4 1 7.5 1.2 38.7 1l39.3-.3 29.1-47.6c16-26.2 29.3-47.5 29.6-47.4.3.2 13.2 21.8 28.5 47.9l28 47.6h39.4c33.3 0 39.2-.2 38.8-1.4-.3-.8-22.2-33.9-48.7-73.6-26.5-39.7-47.9-72.7-47.6-73.3.2-.7 22.9-33.4 50.4-72.7l50-71.5-39.6-.3c-33-.2-39.9 0-40.7 1.2-.6.7-13.2 21.4-28 46-14.9 24.5-27.3 44.6-27.7 44.6-.3 0-12.5-20.7-27-46l-26.3-45.9-40.3-.1c-32 0-40.2.3-39.6 1.2zM1425.2 473.7c-8.5 4.2-11.3 17.3-5.4 25.2 6.8 9.1 21.5 8.7 27.9-.9 3.2-4.6 3.2-13.4 0-18.1-5-7.5-14.6-10.1-22.5-6.2zM1820 474.2c-5.3 3.7-7.3 7.1-7.7 13.5-.3 4.4.1 6.7 1.5 9.3 5.2 9.5 18 11.5 26.6 4 8.3-7.3 6.4-22-3.5-27-5.3-2.8-12.7-2.6-16.9.2zM1539.5 485.5c-17.2 3.9-29.3 10.3-40.1 21-12.6 12.5-17.6 25.1-17.6 44.5 0 9 .5 11.9 3.1 20.1 3.9 12.1 7.1 16.9 17.7 26.3 9.4 8.2 20.1 14 50.9 27.6 19.9 8.8 30.1 14.8 38.1 22.5 5.3 5.2 6.5 7 8.3 12.9 4.1 13.4 1.7 27.3-6.6 38.3-3.6 4.7-12.5 10.2-21.2 13.2-7.1 2.4-8.8 2.5-25.1 2.5-15.5-.1-18.6-.4-27.1-2.6-12.5-3.4-23.7-8.1-31.6-13.4l-6.3-4.2V723l5.3 3c24.3 13.9 66.2 17.9 94.2 8.9 12-3.8 20.6-8.9 29-17.4 10.9-10.9 15.9-22.9 17.1-41.2 1.6-23.3-9.3-44.1-30.1-57.8-10.1-6.6-14.9-9-36.7-18.5-43-18.7-53.8-29.5-52.6-52.6.7-14.2 7.5-24.6 20.6-31.7 18.9-10.3 53.5-8.5 77.2 3.9 3 1.6 5.8 3 6.3 3.2.4.2.7-6 .7-13.8v-14.1l-6.5-3c-12.2-5.5-21-7.1-42-7.5-13.7-.2-20.7.1-25 1.1zM802 611.5V737h26.1l-.3-108.5c-.2-59.6 0-108.1.3-107.7.4.4 22.5 36.9 49.1 81.2 26.7 44.3 55.9 92.8 64.9 107.7l16.4 27.3H992V486h-25v217.4l-55.3-92c-30.5-50.5-59.9-99.3-65.4-108.4l-9.9-16.5-17.2-.3-17.2-.2v125.5zM1218 524v23h-31v22h31v62.7c0 50.6.3 64.1 1.5 69.5 5.2 24.6 23.1 37.7 51.6 37.8 8.8 0 16.3-1.7 23.2-5.1l3.7-1.9v-26.2l-3.2 2.2c-8.4 5.5-11.8 6.5-22.8 6.5-9.3 0-11.1-.3-15.5-2.5-6.6-3.4-10.9-9.7-12.4-18.3-.7-4.2-1.1-26.6-1.1-65.5V569h54v-22h-54v-46h-25v23zM1732.5 544.6c-23.6 3.5-39 10.3-52.7 23.2-33 31.1-41.9 80.2-22 121.6 14.9 30.9 40 48 75.8 51.8 18.2 1.9 38.2-1.4 49.7-8.2l3.7-2.2v-26l-2.7 1.8c-11.5 7.5-21.8 10.4-37.5 10.4-14.6 0-24.3-2.1-35.6-7.6-18.3-8.9-31.1-26.3-35.9-48.7-2.3-11.1-1.3-31.8 2-42.2 4.4-13.6 13.9-27.4 24.2-35.2 13.2-10 26.9-14.4 45.5-14.4 14.8 0 27.8 3.3 36 9.1 1.6 1.1 3.1 2 3.4 2 .3 0 .6-5.8.6-12.9v-12.8l-6.2-2.8c-10.5-4.7-19.2-6.6-32.8-7-6.9-.2-13.8-.1-15.5.1zM2125.4 545c-18.7 2-34.8 10.5-43.9 23.3-2.2 3.1-4.3 5.6-4.7 5.7-.5 0-.8-6.1-.8-13.5V547h-25v190h24.9l.3-58.8c.4-56.7.5-59 2.6-66.5 3.1-11.1 7.7-19.2 15.2-26.8 11.4-11.4 24.9-16.6 40.7-15.6 18.1 1.1 30.9 12.5 34.3 30.6.6 3.2 1 31.3 1 71.2V737h25v-70.8c0-67.3-.1-71.3-2-78.6-7.5-29.5-34-46.1-67.6-42.6zM2296.5 545.4c-39.7 6.5-69.2 35.6-77.7 76.6-2.9 13.7-2.1 36.5 1.6 49.9 7.4 26.7 25 48.9 47.1 59.6 11.2 5.5 20.7 8.1 34.4 9.6 18.2 2 34.2-.3 47.9-6.7l7.2-3.5V718c0-7.2-.2-13-.4-13s-2.9 1.6-6.1 3.5c-11.2 6.7-16.9 8-35.5 7.9-15.1 0-17.2-.2-24.5-2.7-29.2-9.7-47.5-36.8-47.5-70.2 0-22 7.3-39.7 22.6-55.2 13.5-13.5 28.8-19.4 50.8-19.4 13.3 0 23.9 2.4 33.3 7.6 3.5 1.9 6.6 3.5 6.9 3.5.2 0 .3-5.7.2-12.8l-.3-12.7-5.8-2.8c-13.4-6.5-36.7-9.2-54.2-6.3zM1384.6 546.6c-13.7 2.7-26.3 11.1-34.2 22.8l-3.4 5.1V547h-25v190h24.9l.4-59.8c.3-52.4.5-60.4 2-65.3 7.3-24.3 22.4-40.5 39.7-42.5 5-.6 14 .5 18.3 2.1 1.6.7 1.7-.3 1.7-12.3v-12.9l-4.6-.7c-6.6-.9-11.9-.6-19.8 1zM1937.1 546c-32.5 4.6-57.8 28.6-66.6 63.3-3.3 13-4.7 30.9-3.5 44.5 2.3 25.8 10.9 44.4 28.3 60.8 18.6 17.8 40.7 25.2 71.7 24.1 16.9-.6 26.1-2.4 40-7.8l8-3v-13.1c0-7.1-.3-12.8-.7-12.6-.5.1-4.2 2-8.3 4.1-10.9 5.4-21.1 7.7-37 8.4-21.3.9-35.6-2.3-48.6-10.8-14.5-9.4-24.3-25.7-26.9-44.7l-.7-5.2h131.9l.7-3.8c1.1-7 .6-31.9-.9-40.3-3.3-19.3-9.9-32.5-22-44.6-9.2-9.1-19.3-14.7-31.8-17.8-8.2-2-24.8-2.7-33.6-1.5zm26.4 24.5c17.6 4.5 30.3 17.3 34.9 35 .8 3.3 1.7 10.3 1.8 15.5l.3 9.5-53.7.3c-52.5.2-53.8.2-53.8-1.7 0-4.5 3.1-17.3 5.9-24.7 6.7-17.3 20.4-29.9 36.9-33.8 7.7-1.9 20.5-1.9 27.7-.1zM2443.5 546c-16.8 2.7-30.1 9-41.7 19.9-20.1 18.9-28.8 42.2-28.8 77 0 31 8.6 52.9 27.8 71.3 16.8 16 35.4 23.4 61.7 24.5 20.2.8 38-2.1 53.7-8.9l4.8-2v-13c0-7.1-.3-12.8-.7-12.6-21.8 10.9-26.7 12.1-49.3 12.2-19.6.1-25.1-.9-37.5-6.8-17.7-8.4-28.6-22.9-32.9-43.8-.9-4.3-1.6-8.2-1.6-8.8 0-.7 20.9-1 65.9-1h66l.5-4.3c1.4-11.8 1.6-17.2.6-28.5-1.4-15.8-3.9-25.5-9.6-37.2-3.9-7.9-6.2-11-13.3-18.1-13.6-13.7-27.6-19.4-49.1-20.4-5.8-.2-13.2 0-16.5.5zm24.7 24.1c17.7 3.7 31.6 17.4 36.3 35.8.9 3.4 1.7 10.3 1.8 15.4l.2 9.2-53.8.3-53.9.2.7-5.2c3.9-28.5 19.5-49.2 41.5-55 7.6-2 19.6-2.3 27.2-.7zM2591.6 547.5c-28 7.1-44.4 29.6-40.7 55.8 1.6 11.6 5.1 18.5 13.2 26.1 8.8 8.4 17 13.1 38.6 22.5 27.9 12 36.6 18.7 39.3 30.2 3.7 15.2-4.1 28.1-19.5 32.4-17.2 4.8-43 1.3-62.7-8.5-4.4-2.2-8.1-4-8.4-4-.2 0-.4 5.9-.4 13v13l5.8 2.6c13 5.8 29.2 8.6 49.2 8.6 16.2 0 25.1-1.7 35.8-6.8 19.4-9.4 29.7-29.5 26.5-51.7-3.1-22.1-15.7-33.6-55.1-50.6-30.2-13-37.2-19.7-37.2-35 .1-7.4 2.6-12.7 8.5-17.9 8-7 20-9.3 38.6-7.3 12.2 1.3 22.9 4.1 30 7.6l4.9 2.5v-25.8l-7.2-2.6c-11.8-4.2-15.4-4.7-34.8-5.1-14.2-.4-19.9-.1-24.4 1zM1027 617.7c0 77.7.1 78.4 6 90.8 3.6 7.5 12.8 17.9 19.8 22.4 2.6 1.6 8.3 4.2 12.7 5.7 7.2 2.5 9.4 2.8 22 2.8 10.3 0 15.7-.4 20.5-1.7 14.6-4 24.7-10.6 32.6-21.4l4.9-6.7.3 13.7.3 13.7h24.9V547h-24.9l-.3 59.2c-.4 57.2-.5 59.6-2.6 67.1-7.4 26.5-25.8 41.7-50.8 41.9-21.2.1-35.2-10.6-39.3-30-.7-3.6-1.1-27-1.1-71.7V547h-25v70.7zM1421 642v95h25V547h-25v95zM1816 642v95h25V547h-25v95zM762 993v20.9l-4.3-4.3c-10.4-10.4-28.3-10.3-39.9.3-8.7 7.9-12.8 18.4-12.8 32.6 0 12.8 3.5 22.6 10.7 30.6 5.3 5.9 10.4 8.1 19.6 8.7 10.3.6 15.6-1 21.8-6.5l4.9-4.5v10.2h12V972h-12v21zm-13.1 22.6c6.3 3.2 10.4 8.4 12.1 15.5 1.6 6.6.8 21.1-1.4 26.4-3.6 8.6-11 13.5-20.4 13.5-8.6 0-13.9-3.7-18.3-12.5-2.9-5.9-3.2-7.5-3.2-15.3 0-10.3 1.9-17.1 6.5-22.6 6.3-7.7 15.5-9.5 24.7-5zM1573 1026.5v54.5h12V972h-12v54.5zM1667 1026.5v54.5h12v-22.5c0-12.3.5-24.7 1.1-27.4 1.3-6.4 4.3-10.7 9.8-14.6 3.7-2.6 5.2-3 10.6-3 7.2 0 10.6 1.8 14 7.6 1.9 3.1 2 5.5 2.3 31.6l.3 28.3h11.9v-28.8c0-33.3-.5-36.5-7-43-10.1-10.1-27.9-9.6-38.1.9l-4.9 5V972h-12v54.5zM2553 1026.5v54.5h12V972h-12v54.5zM2642 993.2v21.2l-4.2-4.1c-6-5.7-10.2-7.6-18.3-8.1-13.5-.8-24.4 6.1-30.8 19.6-3.1 6.5-3.2 7.1-3.2 20.2 0 16.1 1.8 21.7 9.3 30.1 6.5 7.3 12.5 9.9 22.7 9.9 9.4 0 15-2.1 20.8-7.8l3.7-3.6v10.4h12V972h-12v21.2zm-14.5 21.7c5 2.2 10.8 8.6 12.6 13.7.9 2.3 1.4 7.9 1.4 13.9 0 9.2-.3 10.6-3 16-2.1 4.2-4.3 6.9-7.3 9-4 2.7-5.1 3-12.2 3-7.2 0-8.1-.2-11.7-3.1-2.1-1.7-5.1-5.7-6.8-8.9-2.8-5.4-3-6.7-3-15.9.1-8.3.5-11 2.4-15.1 5.5-12.3 16.9-17.5 27.6-12.6zM4.7 977.7c-.4.3-.7 23.7-.7 52v51.3h22.8c25.1 0 29.8-.7 36.8-5.8 2.1-1.6 5.2-5.3 6.9-8.3 2.6-4.7 3-6.4 2.9-13.4 0-11.9-4.5-19.1-14.4-23.3l-4.5-1.9 4.3-2.2c10.7-5.5 15.2-21.3 9.3-32.9-4.2-8.1-12.3-13.2-24.1-15.1-7.1-1.2-38.3-1.5-39.3-.4zm41 11.8c15.3 4.6 16.5 24.3 1.9 31.1-4.5 2.1-6.5 2.4-17.8 2.4H17v-35h11.8c7.6 0 13.6.5 16.9 1.5zm2 46c17.9 5.3 17.4 30.5-.6 34.4-2.9.6-10.8 1.1-17.6 1.1H17v-37h12.8c8.5 0 14.5.5 17.9 1.5zM459 1029v52h12v-45h39v-11h-39v-37h45.1l-.3-5.3-.3-5.2-28.2-.3-28.3-.2v52zM861 1029v52.2l24.8-.4c23.7-.3 24.9-.4 29.2-2.7 9.6-5 14-11.6 14.8-22.1.2-3.6-.1-8.4-.7-10.8-1.6-5.6-7.3-11.9-13.5-14.8l-4.9-2.3 3.5-1.4c4.4-1.8 10.1-8.5 11.6-13.6 3.2-10.5-.2-22.5-8-28.2-8.6-6.1-13.3-7.1-36-7.7l-20.8-.4v52.2zm45.1-37.8c10.7 6.3 10.7 20.7 0 28.3-4.2 2.9-4.5 3-18.7 3.3l-14.4.4v-35.4l14.3.4c13.3.3 14.5.5 18.8 3zm1.6 45.6c6.1 3.2 8.7 7.4 9.1 14.8.6 8.2-2.2 13.4-8.7 16.6-4 2-6.6 2.3-19.8 2.6l-15.3.4v-37.4l15.3.4c13.2.3 15.7.7 19.4 2.6zM1315 1029v52h12v-47h51v47h12V977h-12v46h-51v-46h-12v52zM1814.7 977.7c-.4.3-.7 23.7-.7 52v51.3h22.8c25.3 0 29.8-.7 37-6 2.5-1.8 5.3-5.1 6.9-8.2 3.6-7 3.9-19.1.6-25.3-2.8-5.3-6.8-9-12.3-11.3l-4.5-1.9 4.2-2.1c13.4-6.9 16.3-26.3 5.7-38.1-5-5.5-11-8.5-20.5-10-7-1.2-38.2-1.5-39.2-.4zm41 11.8c11.6 3.4 15.7 15.3 8.9 25.6-4 6-8.1 7.4-23.8 7.7l-13.8.4V988h11.8c7.6 0 13.6.5 16.9 1.5zm2 46c17.9 5.3 17.5 30.5-.5 34.4-2.9.6-10.9 1.1-17.7 1.1H1827v-37h12.8c8.5 0 14.5.5 17.9 1.5zM2263 978.2c0 .7 5.9 24.1 13.1 52.1l13.2 50.7h16.2l9.7-33.3c5.4-18.2 10.7-36.9 11.9-41.5 1.2-4.5 2.6-7.9 3-7.5.6.7 24.9 80.5 24.9 81.8 0 .3 3.7.5 8.3.5h8.2l11.9-50.8c6.5-27.9 12.1-51.3 12.3-52 .4-.9-1.2-1.2-6.1-1.2-3.6 0-6.6.2-6.6.6 0 .3-3.6 16.3-7.9 35.7-4.4 19.4-8.7 39-9.7 43.7-.9 4.7-2 8.8-2.3 9.2-.4.4-3.3-8.1-6.5-19-5-16.8-16.4-54.3-19.7-65-1-3.2-1.1-3.2-7.3-3.2h-6.3l-7.6 26.2c-4.2 14.5-9.8 34.1-12.4 43.5-2.6 9.5-5 17.3-5.3 17.3-.3 0-5.5-19.9-11.5-44.3l-11.1-44.2-6.2-.3c-4.6-.2-6.2 0-6.2 1zM179 993.5v9.5h-13v10h13v26.7c0 29.8.5 32.2 6.9 37.6 5.4 4.5 15 6 23.2 3.5l3.9-1.1v-11.8l-3 1.6c-3.5 1.8-9.9 2-13.5.3-5.1-2.3-5.5-4.5-5.5-31.8v-25h21v-10h-21v-19h-12v9.5zM236 993.5v9.5h-12v10h11.8l.5 26.2c.4 29.4.9 31.9 6.8 37.3 5.8 5.2 15.3 7 24 4.3l3.9-1.1v-11.8l-3 1.6c-1.6.8-5.2 1.5-8 1.5-4.4 0-5.6-.5-8.1-2.9l-2.9-2.9V1013h21v-10h-21v-19h-13v9.5zM1035 993.5v9.5h-12v10h12v25.2c0 13.9.5 26.9 1 28.9 2.8 10 9.3 14.4 21.5 14.4 10.9 0 12.5-1 12.5-8 0-3-.2-5.5-.4-5.5s-1.7.7-3.2 1.5c-1.6.8-5 1.5-7.6 1.5-3.9 0-5.4-.6-8-2.9l-3.3-2.9-.3-26.1-.3-26.1h22.1v-10h-22v-19h-12v9.5zM1093 993.5v9.5h-13v10h13v25.8c0 28.4.7 32.6 5.8 37.5 5.3 5.1 15.8 7 24.5 4.6l3.7-1v-12l-3 1.6c-3.7 1.9-10.3 1.9-13.9 0-4.6-2.3-5.1-5.6-5.1-32.1V1013h22v-10h-22v-19h-12v9.5zM1614 993.5v9.5h-12v10h12v25.2c0 13.9.5 26.9 1 28.9 2.8 10 9.3 14.4 21.5 14.4 10.9 0 12.5-1 12.5-8 0-3-.2-5.5-.4-5.5s-1.7.7-3.2 1.5c-1.6.8-5 1.5-7.6 1.5-3.9 0-5.4-.6-8-2.9l-3.3-2.9-.3-26.1-.3-26.1h22.1v-10h-22v-19h-12v9.5zM1989 993.5v9.5h-13v10h13v26.7c0 29.8.5 32.2 6.9 37.6 5.3 4.4 15 6 23.4 3.6l3.7-1v-12l-3 1.6c-3.5 1.8-9.9 2-13.5.3-5.1-2.3-5.5-4.5-5.5-31.8v-25h21v-10h-21v-19h-12v9.5zM2046 993.5v9.5h-12v10h11.8l.4 26.2c.5 29.4 1 32.1 7.4 37.7 5.5 4.9 15.1 6.5 23.5 3.9l3.9-1.1v-11.8l-3 1.6c-1.6.8-5.2 1.5-8 1.5-4.4 0-5.6-.5-8.1-2.9l-2.9-2.9V1013h21v-10h-21v-19h-13v9.5zM113.3 1003.5c-17 4.8-26.5 20.9-25 42.3 1.6 23.5 18.2 37.4 42.7 35.9 4.7-.2 10.8-1.3 13.5-2.4l5-1.9.3-5.6.3-5.7-4.8 2.2c-4 1.8-6.6 2.2-15.8 2.2-9.4 0-11.6-.3-15-2.2-7.5-4-13.5-12.3-13.5-18.8v-2.5h52.7l.7-4.6c.8-5.8-.9-17.5-3.3-22.8-5.9-13.5-22.3-20.5-37.8-16.1zm18.5 11.4c6.7 3.4 10.2 9.5 10.2 17.6v4.5h-41v-2.3c0-7.3 6.6-17.3 13.4-20.3 4.6-2 13-1.7 17.4.5zM310.1 1003.5c-10.3 2.9-17.8 10-22.2 21.2-3.1 7.9-3.4 25.2-.5 32.9 6.1 16.5 20.9 25.3 40.6 24.1 4.7-.2 10.8-1.3 13.5-2.4l5-1.9.3-5.6.3-5.7-4.8 2.2c-4 1.8-6.6 2.2-15.8 2.2-9.4 0-11.6-.3-15.1-2.2-7.1-3.8-13.4-12.6-13.4-18.8v-2.5h52.8l.6-4.3c.8-5.5-.9-17.8-3.3-23.1-6-13.6-22.3-20.5-38-16.1zm21.4 12.9c4.6 3.5 7.4 9.6 7.5 15.8v4.8h-41v-2.3c0-4.4 3.1-11.5 6.7-15.2 5.1-5.2 8.6-6.6 16.4-6.2 5.5.2 7.3.7 10.4 3.1zM398.4 1002.9c-5 1.2-10.1 4.9-12.6 8.9l-2.3 3.7-.3-6.3-.3-6.2H371v78h12v-23.3c0-25.5.7-30 5.5-36.3 4.1-5.4 8.1-7.4 14.8-7.4h5.8l-.3-5.8-.3-5.7-3.5-.2c-1.9-.1-4.9.2-6.6.6zM556 1003.3c-11.6 3.3-20.7 13-24.5 26.1-2.6 9.1-1.7 24.2 1.9 32.1 7.1 15.6 22.6 23.6 39.6 20.5 18.9-3.4 30-18.4 30-40.3 0-17.1-8.1-30.9-21.6-36.8-5.9-2.7-18.9-3.5-25.4-1.6zm23.2 13.2c2.6 1.9 5.4 5.2 7.3 8.5 2.5 4.7 3 6.9 3.3 14.6.6 12.5-1.3 18.9-7.6 25.3-11 11.4-27.5 8.9-35.6-5.3-8.6-14.8-3.6-37.8 9.6-44.5 3.5-1.8 5.7-2.1 11.5-1.9 6.1.3 7.8.8 11.5 3.3zM642.3 1003.9c-10.1 3.4-16.1 9.1-20.9 19.6-7.2 15.6-4.6 36.5 5.9 48.2 12.5 13.8 37.9 14.7 51.2 1.7 16.3-15.8 15.9-47.9-.6-62.8-8.8-7.9-23.9-10.8-35.6-6.7zm22.8 11.9c4.7 2.4 5.8 3.6 8.9 9.6 3.3 6.5 3.5 7.4 3.5 17 0 9-.3 10.7-2.8 15.8-6.1 12.3-18.4 17-30.3 11.4-19-8.8-19.2-44.8-.4-54.4 6.4-3.2 14.2-3 21.1.6zM970.7 1003c-7.6 1.9-14.1 6.4-19 13-7.9 10.8-9.6 31.4-3.7 44.7 2.9 6.6 11.1 14.6 18.3 17.9 5.6 2.6 7.2 2.9 17.2 2.9 8.1 0 12.5-.5 16.8-1.9l5.7-1.9v-11.6l-4.7 2.1c-6 2.7-19.4 3.6-25.9 1.8-9-2.5-16.3-10.4-17.9-19.3l-.7-3.7h53.2l.6-2.6c1-4.1-.3-17-2.3-22.6-2.4-6.9-9-14-15.4-16.7-5.8-2.5-16.5-3.5-22.2-2.1zm16 11.1c3.4 1.3 8 5.5 9.9 9.1.7 1.4 1.7 5.1 2 8.2l.7 5.6h-21.2c-23.5 0-22.1.6-19.6-7.6 3.7-12.4 16.9-19.6 28.2-15.3zM1167.7 1003c-7.6 2-13.6 6.1-19.1 13.3-7.7 10.1-9.4 31.3-3.6 44.4 2.9 6.6 11.1 14.6 18.3 17.9 5.6 2.6 7.2 2.9 17.2 2.9 8.1 0 12.5-.5 16.8-1.9l5.7-1.9v-11.6l-4.7 2.1c-6 2.7-19.4 3.6-25.9 1.8-9-2.5-16.3-10.4-17.9-19.2l-.7-3.8 26.8-.2 26.9-.3v-9.5c-.1-6.4-.7-11.2-1.9-14.7-2.3-7-9.1-14.4-15.7-17.2-5.8-2.5-16.5-3.5-22.2-2.1zm16 11.1c3.4 1.3 8 5.5 9.9 9.1.7 1.4 1.7 5.1 2 8.2l.7 5.6h-21.2c-23.5 0-22.1.6-19.6-7.6 3.7-12.4 16.9-19.6 28.2-15.3zM1253.5 1003.4c-4.7 1.3-9.8 5.6-13.2 11.2-1 1.6-1.2.8-1.2-4.9l-.1-6.7h-12v78h12v-21.4c0-23.9.8-30.1 4.8-36.6 4.1-6.6 8.2-9 15.4-9h5.9l-.3-5.8c-.3-5.6-.4-5.7-3.3-5.9-1.6-.1-5.2.4-8 1.1zM1436.4 1002.9c-10.4 2.7-19.6 10.8-23.6 20.9-1.9 4.8-2.2 7.6-2.3 18.2 0 12.2.1 12.7 3.3 19.2 4 8.1 11.1 14.8 19 17.9 7.7 3.1 25 3.3 33 .6l5.2-1.9v-11.5l-4.2 2c-5.1 2.5-18.6 3.5-25.4 1.8-7.2-1.8-12.8-6.3-15.8-12.3-1.3-2.9-2.6-6.4-2.8-7.8l-.3-2.5 26.9-.3 26.8-.2-.4-10.8c-.3-8.9-.8-11.6-2.9-16.2-3.6-7.6-7.1-11.5-13.3-14.5-5.8-2.9-17.3-4.1-23.2-2.6zm17.3 12c5.9 2.7 9.6 8.6 10.1 16.2l.4 5.9H1422l.6-2.8c2.2-9.8 6.1-15.9 12.5-19 5.5-2.7 12.9-2.8 18.6-.3zM1507 1003.4c-8.4 2.4-9 3-9 9.6v5.9l5.7-2.6c3.9-1.8 8-2.8 13-3.1 13.7-.9 19.9 3.8 21 15.7l.5 5.8-11.8.6c-13.8.8-20.4 2.5-26.3 6.8-14 10.1-9.1 34 8 38.9 8.9 2.6 21 .2 26.5-5.1l3.4-3.3v8.4h12.1l-.3-29.8c-.3-29.7-.3-29.7-2.9-35.3-3.1-6.5-7.7-10.4-14.5-12.5-5.7-1.7-19.2-1.7-25.4 0zm31 48.3c0 12-5.3 18.7-15.8 20-10.2 1.2-17.2-4-17.2-12.7 0-9.7 7.1-13.8 23.8-13.9l9.2-.1v6.7zM1923.2 1003.5c-10.4 2.9-17.9 10.1-22.3 21.4-1.9 4.6-2.3 7.7-2.3 17.1-.1 10.6.1 12 2.7 17.5 1.5 3.2 3.9 7.4 5.3 9.3 3.8 4.9 12 9.9 19.4 11.8 8.1 2 21.3 1.5 28.5-1.3l5-1.9.3-5.6.3-5.7-4.8 2.2c-4 1.8-6.6 2.2-15.8 2.2-9.4 0-11.6-.3-15.1-2.2-7.1-3.8-13.4-12.6-13.4-18.8v-2.5h52.8l.7-4.8c.8-5.7-.9-17.2-3.4-22.7-6-13.5-22.4-20.4-37.9-16zm21.3 12.9c4.6 3.5 7.4 9.6 7.5 15.8v4.8h-41.3l.6-3.9c1-7.8 6.6-15.8 13.2-18.8 1.8-.8 5.5-1.2 9.6-1 5.5.2 7.3.7 10.4 3.1zM2120.2 1003.5c-10.4 2.9-17.9 10.1-22.3 21.4-1.9 4.6-2.3 7.7-2.3 17.1-.1 11.5-.1 11.7 3.7 19.2 5.5 11.2 13.4 17.3 25.9 19.9 6.8 1.5 20 .6 26.3-1.8l5-1.9.3-5.6.3-5.7-4.8 2.2c-4 1.8-6.6 2.2-15.8 2.2-9.4 0-11.6-.3-15.1-2.2-7.3-3.9-13.4-12.8-13.4-19.6 0-1.6 1.9-1.7 26.4-1.7h26.4l.7-4.8c.8-5.7-.9-17.2-3.4-22.7-6-13.5-22.4-20.4-37.9-16zm21.3 12.9c4.6 3.5 7.4 9.6 7.5 15.8v4.8h-41.3l.6-3.9c1-7.8 6.6-15.8 13.2-18.8 1.8-.8 5.5-1.2 9.6-1 5.5.2 7.3.7 10.4 3.1zM2206.9 1003.5c-4.8 1.5-7.9 3.9-11.6 9l-2.2 3-.1-6.3v-6.2h-12v78h12v-23.3c0-25.5.7-30 5.5-36.3 4.1-5.4 8.1-7.4 14.8-7.4h5.8l-.3-5.8-.3-5.7-3.5-.2c-1.9-.1-5.6.4-8.1 1.2zM2434.6 1003.6c-12.4 4-20.4 12.9-24.1 27.1-4.2 16 .2 33.3 11 43.1 7 6.4 13.6 8.7 24.5 8.6 11.3-.1 18.9-3.4 26-11.1 7.6-8.3 9.5-14.2 9.5-29.3 0-11.9-.1-12.8-3.1-19.1-4.3-9-9.1-14-16.5-17.4-7.8-3.5-19.8-4.3-27.3-1.9zm21 11.3c5.1 2.3 9.9 8.1 12.1 14.6 2.3 6.6 2.2 20.5-.1 26-4.8 11.4-11.2 16-22.2 16-6 0-7.6-.4-11.3-2.8-4.7-3.1-9.6-10.2-11.2-16.2-1.8-6.5-.7-20.2 2-25.8 2.7-5.5 7.3-10.4 11.6-12.3 4.4-1.9 14.3-1.7 19.1.5zM2526.8 1003.6c-3.3 1-5.9 2.9-9.2 6.5l-4.6 5.1V1003h-12v78h11.8l.4-25.3c.4-27.3.7-28.9 6.4-35.6 3.7-4.5 7.5-6.1 13.9-6.1h5.6l-.3-5.8-.3-5.7-3.5-.2c-1.9-.1-5.6.4-8.2 1.3zM794.9 1065.5c-3.2 1.7-5.4 6.6-4.5 10 1.1 4.3 4.1 6.5 9 6.5 5.5 0 8.6-3.2 8.6-9 0-6.5-7.4-10.7-13.1-7.5zM1749.4 1065c-5.6 2.3-7.2 10.3-2.9 14.5 3.4 3.5 9.6 3.5 13 0 6.7-6.6-1.4-18.2-10.1-14.5zM2675.4 1065c-5.6 2.3-7.2 10.3-2.9 14.5 3.4 3.5 9.6 3.5 13 0 6.7-6.6-1.4-18.2-10.1-14.5z"/></svg>